<mxfile host="65bd71144e">
    <diagram id="IS_MJQxhf_WlaVLgj39v" name="Page-1">
        <mxGraphModel dx="542" dy="329" grid="1" gridSize="10" guides="1" tooltips="1" connect="1" arrows="1" fold="1" page="1" pageScale="1" pageWidth="1654" pageHeight="1169" math="0" shadow="0">
            <root>
                <mxCell id="0"/>
                <mxCell id="1" parent="0"/>
                <mxCell id="5" value="" style="shape=ext;double=1;rounded=0;whiteSpace=wrap;html=1;fillColor=#1ba1e2;fontColor=#ffffff;strokeColor=#006EAF;" parent="1" vertex="1">
                    <mxGeometry x="510" y="200" width="620" height="1120" as="geometry"/>
                </mxCell>
                <mxCell id="9" value="Créer un compte" style="ellipse;shape=doubleEllipse;whiteSpace=wrap;html=1;" parent="1" vertex="1">
                    <mxGeometry x="736.67" y="274" width="166.67" height="100" as="geometry"/>
                </mxCell>
                <mxCell id="10" value="Trier les suggestions de annonces / candidatures" style="ellipse;shape=doubleEllipse;whiteSpace=wrap;html=1;" parent="1" vertex="1">
                    <mxGeometry x="736.67" y="625" width="166.67" height="100" as="geometry"/>
                </mxCell>
                <mxCell id="11" value="Web app de mise en relation professionnel" style="text;strokeColor=none;fillColor=none;html=1;fontSize=24;fontStyle=1;verticalAlign=middle;align=center;" parent="1" vertex="1">
                    <mxGeometry x="547" y="210" width="560" height="40" as="geometry"/>
                </mxCell>
                <mxCell id="12" value="Chatter" style="ellipse;shape=doubleEllipse;whiteSpace=wrap;html=1;" parent="1" vertex="1">
                    <mxGeometry x="736.67" y="743.5" width="166.67" height="100" as="geometry"/>
                </mxCell>
                <mxCell id="13" value="Créer des annonces (offres de stage)" style="ellipse;shape=doubleEllipse;whiteSpace=wrap;html=1;" parent="1" vertex="1">
                    <mxGeometry x="736.67" y="963" width="166.67" height="100" as="geometry"/>
                </mxCell>
                <mxCell id="25" style="edgeStyle=none;html=1;exitX=0.5;exitY=0.5;exitDx=0;exitDy=0;exitPerimeter=0;entryX=0;entryY=0.5;entryDx=0;entryDy=0;" parent="1" source="22" target="9" edge="1">
                    <mxGeometry relative="1" as="geometry"/>
                </mxCell>
                <mxCell id="26" style="edgeStyle=none;html=1;exitX=0.5;exitY=0.5;exitDx=0;exitDy=0;exitPerimeter=0;entryX=0;entryY=0.5;entryDx=0;entryDy=0;" parent="1" source="22" target="10" edge="1">
                    <mxGeometry relative="1" as="geometry"/>
                </mxCell>
                <mxCell id="27" style="edgeStyle=none;html=1;exitX=0.5;exitY=0.5;exitDx=0;exitDy=0;exitPerimeter=0;entryX=0;entryY=0.5;entryDx=0;entryDy=0;" parent="1" source="22" target="12" edge="1">
                    <mxGeometry relative="1" as="geometry"/>
                </mxCell>
                <mxCell id="35" style="edgeStyle=none;html=1;exitX=0.5;exitY=0.5;exitDx=0;exitDy=0;exitPerimeter=0;entryX=0;entryY=0;entryDx=0;entryDy=0;" parent="1" source="22" target="32" edge="1">
                    <mxGeometry relative="1" as="geometry"/>
                </mxCell>
                <mxCell id="37" style="edgeStyle=none;html=1;exitX=0.5;exitY=0.5;exitDx=0;exitDy=0;exitPerimeter=0;entryX=0.044;entryY=0.327;entryDx=0;entryDy=0;entryPerimeter=0;" parent="1" source="22" target="36" edge="1">
                    <mxGeometry relative="1" as="geometry"/>
                </mxCell>
                <mxCell id="41" style="edgeStyle=none;html=1;exitX=0.5;exitY=0.5;exitDx=0;exitDy=0;exitPerimeter=0;entryX=0;entryY=0;entryDx=0;entryDy=0;" parent="1" source="22" target="39" edge="1">
                    <mxGeometry relative="1" as="geometry"/>
                </mxCell>
                <mxCell id="44" style="edgeStyle=none;html=1;exitX=0.5;exitY=0.5;exitDx=0;exitDy=0;exitPerimeter=0;entryX=0;entryY=0.5;entryDx=0;entryDy=0;" edge="1" parent="1" source="22" target="43">
                    <mxGeometry relative="1" as="geometry"/>
                </mxCell>
                <mxCell id="22" value="Etudiants" style="shape=umlActor;verticalLabelPosition=bottom;verticalAlign=top;html=1;outlineConnect=0;" parent="1" vertex="1">
                    <mxGeometry x="320" y="640" width="30" height="60" as="geometry"/>
                </mxCell>
                <mxCell id="28" style="edgeStyle=none;html=1;exitX=0.5;exitY=0.5;exitDx=0;exitDy=0;exitPerimeter=0;entryX=1;entryY=0.5;entryDx=0;entryDy=0;" parent="1" source="24" target="9" edge="1">
                    <mxGeometry relative="1" as="geometry"/>
                </mxCell>
                <mxCell id="29" style="edgeStyle=none;html=1;exitX=0.5;exitY=0.5;exitDx=0;exitDy=0;exitPerimeter=0;entryX=1;entryY=0.5;entryDx=0;entryDy=0;" parent="1" source="24" target="10" edge="1">
                    <mxGeometry relative="1" as="geometry"/>
                </mxCell>
                <mxCell id="30" style="edgeStyle=none;html=1;exitX=0.5;exitY=0.5;exitDx=0;exitDy=0;exitPerimeter=0;entryX=1;entryY=0.5;entryDx=0;entryDy=0;" parent="1" source="24" target="12" edge="1">
                    <mxGeometry relative="1" as="geometry"/>
                </mxCell>
                <mxCell id="31" style="edgeStyle=none;html=1;exitX=0.5;exitY=0.5;exitDx=0;exitDy=0;exitPerimeter=0;entryX=1;entryY=0.5;entryDx=0;entryDy=0;" parent="1" source="24" target="13" edge="1">
                    <mxGeometry relative="1" as="geometry"/>
                </mxCell>
                <mxCell id="33" style="edgeStyle=none;html=1;exitX=0.5;exitY=0.5;exitDx=0;exitDy=0;exitPerimeter=0;entryX=1;entryY=0.5;entryDx=0;entryDy=0;" parent="1" source="24" target="32" edge="1">
                    <mxGeometry relative="1" as="geometry"/>
                </mxCell>
                <mxCell id="38" style="edgeStyle=none;html=1;exitX=0.5;exitY=0.5;exitDx=0;exitDy=0;exitPerimeter=0;entryX=1;entryY=0.5;entryDx=0;entryDy=0;" parent="1" source="24" target="36" edge="1">
                    <mxGeometry relative="1" as="geometry"/>
                </mxCell>
                <mxCell id="42" style="edgeStyle=none;html=1;exitX=0.5;exitY=0.5;exitDx=0;exitDy=0;exitPerimeter=0;entryX=0.976;entryY=0.329;entryDx=0;entryDy=0;entryPerimeter=0;" parent="1" source="24" target="39" edge="1">
                    <mxGeometry relative="1" as="geometry"/>
                </mxCell>
                <mxCell id="24" value="Entreprises" style="shape=umlActor;verticalLabelPosition=bottom;verticalAlign=top;html=1;outlineConnect=0;" parent="1" vertex="1">
                    <mxGeometry x="1370" y="650.5" width="30" height="60" as="geometry"/>
                </mxCell>
                <mxCell id="32" value="Supprimer son compte" style="ellipse;shape=doubleEllipse;whiteSpace=wrap;html=1;" parent="1" vertex="1">
                    <mxGeometry x="736.66" y="1182" width="166.67" height="100" as="geometry"/>
                </mxCell>
                <mxCell id="36" value="S'authentifier" style="ellipse;shape=doubleEllipse;whiteSpace=wrap;html=1;" parent="1" vertex="1">
                    <mxGeometry x="736.66" y="451" width="166.67" height="100" as="geometry"/>
                </mxCell>
                <mxCell id="39" value="Gestion du compte" style="ellipse;shape=doubleEllipse;whiteSpace=wrap;html=1;" parent="1" vertex="1">
                    <mxGeometry x="736.66" y="1074" width="166.67" height="100" as="geometry"/>
                </mxCell>
                <mxCell id="43" value="Créer des candidatures" style="ellipse;shape=doubleEllipse;whiteSpace=wrap;html=1;" vertex="1" parent="1">
                    <mxGeometry x="736.66" y="853" width="166.67" height="100" as="geometry"/>
                </mxCell>
                <mxCell id="46" value="&amp;lt;&amp;lt;keyword&amp;gt;&amp;gt;" style="endArrow=open;html=1;rounded=0;align=center;verticalAlign=bottom;dashed=1;endFill=0;labelBackgroundColor=none;" edge="1" parent="1">
                    <mxGeometry relative="1" as="geometry">
                        <mxPoint x="1090" y="820" as="sourcePoint"/>
                        <mxPoint x="1250" y="820" as="targetPoint"/>
                    </mxGeometry>
                </mxCell>
                <mxCell id="47" value="Dependency1" style="resizable=0;html=1;align=center;verticalAlign=top;labelBackgroundColor=none;" connectable="0" vertex="1" parent="46">
                    <mxGeometry relative="1" as="geometry"/>
                </mxCell>
                <mxCell id="48" value="&amp;lt;&amp;lt;include&amp;gt;&amp;gt;" style="endArrow=open;html=1;rounded=0;align=center;verticalAlign=bottom;dashed=1;endFill=0;labelBackgroundColor=none;entryX=0.5;entryY=1;entryDx=0;entryDy=0;exitX=0.5;exitY=0;exitDx=0;exitDy=0;" edge="1" parent="1" source="36" target="9">
                    <mxGeometry relative="1" as="geometry">
                        <mxPoint x="590" y="550" as="sourcePoint"/>
                        <mxPoint x="750" y="550" as="targetPoint"/>
                    </mxGeometry>
                </mxCell>
                <mxCell id="49" value="" style="resizable=0;html=1;align=center;verticalAlign=top;labelBackgroundColor=none;" connectable="0" vertex="1" parent="48">
                    <mxGeometry relative="1" as="geometry"/>
                </mxCell>
                <mxCell id="50" value="&amp;lt;&amp;lt;include&amp;gt;&amp;gt;" style="endArrow=open;html=1;rounded=0;align=center;verticalAlign=bottom;dashed=1;endFill=0;labelBackgroundColor=none;exitX=0.5;exitY=0;exitDx=0;exitDy=0;entryX=0.5;entryY=1;entryDx=0;entryDy=0;" edge="1" parent="1" source="10" target="36">
                    <mxGeometry relative="1" as="geometry">
                        <mxPoint x="960" y="560" as="sourcePoint"/>
                        <mxPoint x="1120" y="560" as="targetPoint"/>
                    </mxGeometry>
                </mxCell>
                <mxCell id="51" value="" style="resizable=0;html=1;align=center;verticalAlign=top;labelBackgroundColor=none;" connectable="0" vertex="1" parent="50">
                    <mxGeometry relative="1" as="geometry"/>
                </mxCell>
            </root>
        </mxGraphModel>
    </diagram>
</mxfile>